<svg xmlns="http://www.w3.org/2000/svg" viewBox="0 0 114.24 116.35"><defs><style>.cls-1,.cls-2{isolation:isolate;}.cls-1{font-size:14px;font-family:Adequate-ExtraLight, Adequate;}.cls-1,.cls-3,.cls-4{fill:#fff;}.cls-3,.cls-4{stroke:#fff;stroke-miterlimit:10;}.cls-4{stroke-width:2px;}</style></defs><title>Asset 2</title><g id="Layer_2" data-name="Layer 2"><g id="Layer_1-2" data-name="Layer 1"><text class="cls-1" transform="translate(0.35 12.6) scale(1.07 1)">THE</text><g class="cls-2"><path class="cls-3" d="M10.57,1.79H5.76V12.6H5.31V1.79H.5V1.4H10.57Z"/><path class="cls-3" d="M21.37,12.6h-.45V7.29H12.36V12.6h-.45V1.4h.45V6.9h8.56V1.4h.45Z"/><path class="cls-3" d="M32.78,12.61h-9V1.4h9v.39H24.23V6.73h7.64v.4H24.23v5.09h8.55Z"/></g><g class="cls-2"><g class="cls-2"><path class="cls-4" d="M27.25,57.2h-.93V32.32l-11.94,17L2.44,32.25v25H1.5V30.8h1l11.91,17,11.91-17h1Z"/><path class="cls-4" d="M57.34,44a14.12,14.12,0,0,1-1,5.33,13.79,13.79,0,0,1-2.76,4.35,13,13,0,0,1-4.1,3,12,12,0,0,1-10,0,12.94,12.94,0,0,1-4.1-3,14.33,14.33,0,0,1-2.77-15,14.16,14.16,0,0,1,2.77-4.36,12.88,12.88,0,0,1,4.1-2.93,12.11,12.11,0,0,1,10,0,13,13,0,0,1,4.1,2.93A14.12,14.12,0,0,1,57.34,44Zm-1,0a13,13,0,0,0-.93-4.89A13.34,13.34,0,0,0,52.85,35a12.27,12.27,0,0,0-3.77-2.77,11,11,0,0,0-9.23,0A12.23,12.23,0,0,0,36.09,35a13.15,13.15,0,0,0-2.54,4.06,13.35,13.35,0,0,0,0,9.79A13.29,13.29,0,0,0,36.09,53a12,12,0,0,0,3.76,2.79,11,11,0,0,0,9.23,0A12,12,0,0,0,52.85,53a13.49,13.49,0,0,0,2.54-4.09A13.1,13.1,0,0,0,56.32,44Z"/><path class="cls-4" d="M82.81,30.8,71.7,57.2h-.9L59.64,30.8h1L71.27,56,81.78,30.8Z"/><path class="cls-4" d="M89.6,57.2H85.79v-.92h1.45V31.72H85.75V30.8H89.6v.92H88.17V56.28H89.6Z"/><path class="cls-4" d="M113.24,57.23H94.59V30.8h18.65v.92H95.52V43.37h15.83v.93H95.52v12h17.72Z"/></g></g><g class="cls-2"><path class="cls-3" d="M39.46,115.8H37.8l-5.6-11.62H8.41L2.82,115.8H1.11L19.5,77.4H21Zm-7.91-13L20.26,79.37,9.07,102.84Z"/><path class="cls-3" d="M76,88.82a10.49,10.49,0,0,1-1,4.44,11.17,11.17,0,0,1-2.63,3.63,12.9,12.9,0,0,1-3.91,2.45,12.73,12.73,0,0,1-4.77.91H45.76v15.6H44.25V77.4H63.7a12.54,12.54,0,0,1,4.77.91,13,13,0,0,1,3.9,2.45A11.25,11.25,0,0,1,75,84.38,10.56,10.56,0,0,1,76,88.82Zm-1.66,0a9.15,9.15,0,0,0-.84-3.88,10.1,10.1,0,0,0-2.29-3.2,11.27,11.27,0,0,0-3.44-2.18,10.9,10.9,0,0,0-4.19-.82H45.76V98.9H63.43a11.07,11.07,0,0,0,4.19-.79A11.37,11.37,0,0,0,71.08,96a10.12,10.12,0,0,0,2.35-3.19A9.19,9.19,0,0,0,74.29,88.82Z"/><path class="cls-3" d="M113.19,88.82a10.48,10.48,0,0,1-1,4.44,11.32,11.32,0,0,1-2.63,3.63,12.9,12.9,0,0,1-3.91,2.45,12.73,12.73,0,0,1-4.77.91H83v15.6H81.49V77.4H101a12.45,12.45,0,0,1,4.76.91,12.9,12.9,0,0,1,3.91,2.45,11.25,11.25,0,0,1,2.62,3.62A10.55,10.55,0,0,1,113.19,88.82Zm-1.66,0a9.29,9.29,0,0,0-.83-3.88,10.13,10.13,0,0,0-2.3-3.2A11.34,11.34,0,0,0,105,79.56a10.94,10.94,0,0,0-4.19-.82H83V98.9h17.67a11.07,11.07,0,0,0,4.19-.79A11.32,11.32,0,0,0,108.32,96a10,10,0,0,0,2.35-3.19A9.19,9.19,0,0,0,111.53,88.82Z"/></g></g></g></svg>